<?xml version="1.0" encoding="UTF-8"?>
<svg id="Layer_1" data-name="Layer 1" xmlns="http://www.w3.org/2000/svg" viewBox="0 0 433.26 360">
  <defs>
    <style>
      .cls-1 {
        stroke: #dc3454;
      }

      .cls-1, .cls-2 {
        fill: none;
        stroke-miterlimit: 10;
        stroke-width: 4px;
      }

      .cls-3 {
        fill: #fff;
      }

      .cls-2 {
        stroke: #e98349;
      }
    </style>
  </defs>
  <path class="cls-3" d="M161.61,249.68c-7,4.75-23.75,15.25-50.25,15.25-48,0-86.75-36.75-86.75-86.25s38.75-86.25,86.75-86.25,86.75,36.5,86.75,86.25c0,30.5-13.75,49.5-23.5,59.75l24.5,25.25h-24l-13.5-14ZM161.36,224.93c6.25-6.75,17.75-21.75,17.75-46.25,0-38.25-30.5-68.75-67.75-68.75s-67.75,30.5-67.75,68.75,30.25,68.75,67.75,68.75c10.5,0,24-2.5,37-11l-40.25-41.5h24l29.25,30Z"/>
  <path class="cls-3" d="M338.88,279.57c10.08,18.2,19.6,24.92,33.6,24.92,3.08,0,5.88-.28,8.96-1.12v12.88c-4.2,1.12-8.4,1.68-12.6,1.68-18.48,0-33.04-11.2-44.52-33.04l-9.8-18.76h-1.68c-49.56,0-85.96-36.68-85.96-88.2s36.4-88.2,85.96-88.2,85.96,36.96,85.96,88.2c0,45.08-28,78.96-68.32,86.52l8.4,15.12ZM312.84,104.01c-40.6,0-70,29.68-70,73.92s29.4,73.92,70,73.92,70-29.68,70-73.92-29.96-73.92-70-73.92Z"/>
  <path class="cls-2" d="M310.29,276.31s20.78,60.01,71,48.41"/>
  <line class="cls-1" x1="182.14" y1="236.84" x2="209.62" y2="264.32"/>
  <line class="cls-1" x1="140.17" y1="194.86" x2="163.41" y2="218.11"/>
</svg>